<svg xmlns:dc="http://purl.org/dc/elements/1.1/" xmlns:cc="http://creativecommons.org/ns#" xmlns:rdf="http://www.w3.org/1999/02/22-rdf-syntax-ns#" xmlns:svg="http://www.w3.org/2000/svg" xmlns="http://www.w3.org/2000/svg" version="1" id="Layer_1" x="0" y="0" viewBox="0 0 1920 1080" xml:space="preserve" enable-background="new 0 0 1920 1080"><metadata id="metadata94"><rdf:RDF><cc:Work><dc:format>image/svg+xml</dc:format><dc:type rdf:resource="http://purl.org/dc/dcmitype/StillImage"/></cc:Work></rdf:RDF></metadata><style type="text/css" id="style3">.st0{fill:#fff}</style><g id="XMLID_12_"><path id="XMLID_164_" class="st0" d="M523.6,578.4c-2.8,0-6.4-0.6-8.2-3.6c-2.4-4.1-2-7.9-1.7-9.1l-0.2-0.2l24.1-29.1l-124.8,4.2 l-0.3-0.2c-0.3-0.2-6.2-4.1-5.7-9.5c0.5-5.4,6-7.5,6.2-7.6l0.3-0.1l122.9-6.5l-33.6-27.9l-0.1-0.2c-0.1-0.3-2.6-6.6,0.6-10.5 c3.2-3.8,9.8-2.5,10.1-2.4l0.2,0.1l58.7,48.7l-44.3,53.3l-0.3,0.1C527.4,578,525.8,578.4,523.6,578.4z M515.7,566 c-0.2,0.8-0.7,4.2,1.4,7.8c2.1,3.4,8.2,2.6,9.7,2.3l42.6-51.3l-56.7-47.1c-1.1-0.2-5.8-0.8-7.9,1.8c-2.1,2.6-0.8,7.1-0.4,8.2 l37.1,30.8l-127.8,6.8c-0.7,0.3-4.5,2.1-4.8,5.8c-0.3,3.7,3.5,6.7,4.5,7.5l128.6-4.3L515.7,566z"/></g><g id="XMLID_33_"><g id="XMLID_19_"><path id="XMLID_161_" class="st0" d="M753,688.5H606V391h147V688.5z M608,686.5h143V393H608V686.5z"/></g><g id="XMLID_22_"><path id="XMLID_158_" class="st0" d="M664,468h-43.5v-43H664V468z M622.5,466H662v-39h-39.5V466z"/></g><g id="XMLID_23_"><path id="XMLID_155_" class="st0" d="M739,468h-43.5v-43H739V468z M697.5,466H737v-39h-39.5V466z"/></g><g id="XMLID_25_"><path id="XMLID_152_" class="st0" d="M663.8,542.5h-43.5v-43h43.5V542.5z M622.3,540.5h39.5v-39h-39.5V540.5z"/></g><g id="XMLID_24_"><path id="XMLID_149_" class="st0" d="M738.8,542.5h-43.5v-43h43.5V542.5z M697.3,540.5h39.5v-39h-39.5V540.5z"/></g><g id="XMLID_27_"><path id="XMLID_146_" class="st0" d="M663.8,617.5h-43.5v-43h43.5V617.5z M622.3,615.5h39.5v-39h-39.5V615.5z"/></g><g id="XMLID_26_"><path id="XMLID_143_" class="st0" d="M738.8,617.5h-43.5v-43h43.5V617.5z M697.3,615.5h39.5v-39h-39.5V615.5z"/></g><g id="XMLID_28_"><path id="XMLID_140_" class="st0" d="M902.9,501.5H774.3v-16.9h128.6V501.5z M776.3,499.5h124.6v-12.9H776.3V499.5z"/></g><g id="XMLID_29_"><path id="XMLID_137_" class="st0" d="M774,689V523h129v165.5l-36,0.5v-75l-58-1v75.5L774,689z M807,611l62,1v75l32-0.5V525H776 v162l31-0.5V611z"/></g></g><g id="XMLID_30_"><path id="XMLID_134_" class="st0" d="M1054.7,578.4c-2.9,0-6.9-0.6-8.7-3.8c-2.3-4.1-1.7-7.9-1.4-9.2l-0.2-0.2l25-28.3l-124.9,0.5 l-0.3-0.2c-0.2-0.2-6-4.3-5.4-9.7c0.7-5.4,6.2-7.3,6.5-7.4l0.3-0.1l123-2.8l-32.8-28.9l-0.1-0.2c-0.1-0.3-2.4-6.7,0.9-10.4 c3.3-3.7,9.9-2.2,10.2-2.1l0.2,0.1l0.2,0.2l57,50.3l-45.9,52l-0.3,0.1C1058,578.2,1056.5,578.4,1054.7,578.4z M1046.6,565.8 c-0.2,0.8-0.8,4.2,1.2,7.8c2,3.5,8.1,2.8,9.6,2.6l44.1-50l-55.3-48.8c-1.1-0.2-5.8-1-8,1.5c-2.2,2.5-1,7.1-0.6,8.2l36.2,32 l-128,2.9c-0.7,0.3-4.5,2-5,5.7c-0.4,3.6,3.3,6.8,4.3,7.6l128.7-0.5L1046.6,565.8z"/></g><g id="XMLID_32_"><g id="XMLID_6_"><path id="XMLID_131_" class="st0" d="M368.5,577.5h-169V477h169V577.5z M201.5,575.5h165V479h-165V575.5z"/></g><g id="XMLID_10_"><path id="XMLID_128_" class="st0" d="M376.5,584.5H192v-115h184.5V584.5z M194,582.5h180.5v-111H194V582.5z"/></g><g id="XMLID_31_"><path id="XMLID_125_" class="st0" d="M241.2,630.4l9.2-11l5.2-20.4h55.8l6.4,22.7l7.8,8.1L241.2,630.4z M256.4,600l-5.1,19.9 l-8,9.5l80-0.5l-6.4-6.6l-6.3-22.3H256.4z"/></g></g><g id="XMLID_35_"><g id="XMLID_42_"><g id="XMLID_45_"><path id="XMLID_122_" class="st0" d="M1621.5,563.3h-128.2v-76.4h128.2V563.3z M1495.3,561.3h124.2v-72.4h-124.2V561.3z"/></g><g id="XMLID_44_"><path id="XMLID_119_" class="st0" d="M1627.5,568.6h-139.9v-87.4h139.9V568.6z M1489.6,566.6h135.9v-83.4h-135.9V566.6z"/></g><g id="XMLID_43_"><path id="XMLID_116_" class="st0" d="M1524.8,603.1l7.1-8.6l3.9-15.6h42.3l4.9,17.3l6.1,6.4L1524.8,603.1z M1536.6,580l-3.9,15.1 l-5.8,7l59.9-0.4l-4.7-4.9l-4.7-16.8H1536.6z"/></g></g><g id="XMLID_46_"><g id="XMLID_49_"><path id="XMLID_113_" class="st0" d="M1431.8,580.6h-128.2v-76.4h128.2V580.6z M1305.7,578.6h124.2v-72.4h-124.2V578.6z"/></g><g id="XMLID_48_"><path id="XMLID_110_" class="st0" d="M1437.9,585.9H1298v-87.4h139.9V585.9z M1300,583.9h135.9v-83.4H1300V583.9z"/></g><g id="XMLID_47_"><path id="XMLID_107_" class="st0" d="M1335.1,620.6l7.2-8.3l3.9-15.3h42.3l4.9,17l6.1,6.2L1335.1,620.6z M1347,598l-3.8,14.8 l-5.9,6.8l59.9-0.4l-4.6-4.7l-4.7-16.5H1347z"/></g></g><g id="XMLID_50_"><g id="XMLID_53_"><path id="XMLID_104_" class="st0" d="M1389.5,421.7h-81.9v-49.1h81.9V421.7z M1309.6,419.7h77.9v-45.1h-77.9V419.7z"/></g><g id="XMLID_52_"><path id="XMLID_101_" class="st0" d="M1393.3,425H1304v-56h89.3V425z M1306,423h85.3v-52H1306V423z"/></g><g id="XMLID_51_"><path id="XMLID_98_" class="st0" d="M1327.5,446.7l4.7-5.7l2.5-10h27.1l3.1,11.1l4.1,4.3L1327.5,446.7z M1335.6,432l-2.5,9.5 l-3.4,4.2l37.1-0.3l-2.7-2.8l-3-10.6H1335.6z"/></g></g><g id="XMLID_54_"><g id="XMLID_57_"><path id="XMLID_95_" class="st0" d="M1494.6,443.6H1422V400h72.5V443.6z M1424,441.6h68.5V402H1424V441.6z"/></g><g id="XMLID_56_"><path id="XMLID_92_" class="st0" d="M1497.9,446.5h-79.1v-49.7h79.1V446.5z M1420.9,444.5h75.1v-45.7h-75.1V444.5z"/></g><g id="XMLID_55_"><path id="XMLID_89_" class="st0" d="M1439.6,465.6l4.2-5.4l2.2-9.1h24l2.8,10.1l3.7,4L1439.6,465.6z M1446.9,452l-2.2,8.7l-3,3.9 l32.6-0.3l-2.3-2.6l-2.6-9.6H1446.9z"/></g></g><g id="XMLID_34_"><path id="XMLID_86_" class="st0" d="M1526.1,696c-0.1,0-0.2,0-0.4,0c-30,0-49.2-17.1-60.1-31.3c-9.3-12.1-14.2-24.3-15.9-29 c-3.3,5-13.6,20.1-27.4,33.7c-22.4,22.2-43.8,30.6-61.8,24.4c-38.7-13.3-44.9-50.8-45.9-58.8c-8.8,4.6-58.8,28.6-95.5,9 c-37-19.9-32.2-60.8-31.1-67.7c-3.9-0.8-19.1-4.3-33.8-12c-22.6-11.9-33.8-28.3-32.2-47.6c3.4-41.8,32.5-58.4,38.3-61.3 c-2-4-9.7-20.1-12.7-39.1c-4.6-29.1,4-51.7,24.7-65.3c26.1-17.1,47.4-15,60.8-10.1c10.7,3.9,18,9.9,21.1,12.9l-0.7-20.4 c-0.2-1.2-1.8-13.9,8.3-26.4c11.6-14.3,33.3-22.3,64.7-23.7c31-1.4,53.1,4.5,65.7,17.7c7.3,7.7,9.6,16,10.2,21.2 c2.9-7.6,9.4-22.5,18.5-32.6c12.6-14.1,46.5-28.6,47.9-29.2l0.2-0.1c0.4-0.1,37.9-6.5,71.3,16.5c29.1,20,23.3,48.7,21.1,56.4 c7.2-2.6,32.8-11.7,39.7-14.2c8.3-3,36.4-0.2,37.6-0.1l0.2,0l0.2,0.1c0.3,0.1,27.8,15.1,43.3,29.9c14.8,14.1-2.8,59-6,66.9 c7.5,1.8,48.4,12.9,62,44.1c14.4,33.2-36.3,78.2-42.2,83.2l10.3,45.7l0,0.2c-0.1,0.3-7.1,30.3-34.6,48.9 c-25.7,17.3-70,0.7-77.8-2.4c-0.9,3.9-4.1,16.9-12.3,29.7C1572.9,679.2,1555.9,696,1526.1,696z M1450.3,631l0.6,2.1 c0,0.2,4.7,15.4,16.3,30.4c10.6,13.8,29.4,30.5,58.5,30.5c0.1,0,0.2,0,0.4,0c23.2,0,41.4-10.1,54-29.9c9.5-14.9,12.2-30,12.2-30.1 l0.2-1.3l1.2,0.5c0.5,0.2,50.3,21.1,77.1,3.1c25.6-17.3,33-44.8,33.7-47.5l-10.5-46.4l0.5-0.4c0.6-0.5,56.5-48.2,42.1-81.3 c-14.5-33.3-61.2-43.2-61.7-43.3l-1.2-0.2l0.5-1.1c0.2-0.5,21.8-51.5,6.9-65.8c-14.7-14-40.3-28.2-42.7-29.5 c-2.6-0.3-29-2.8-36.5,0c-8.1,2.9-41.3,14.7-41.6,14.9l-2.1,0.7l0.8-2c0.5-1.4,12.7-33.7-19.7-56c-31.8-21.9-67.5-16.6-69.7-16.2 c-2.1,0.9-35.1,15.3-47.1,28.7c-12.3,13.8-19.8,36.6-19.9,36.8l-2.8,8.6l0.8-9c0-0.1,1.1-13.5-9.9-25 c-12.1-12.7-33.7-18.4-64.1-17c-30.8,1.4-52,9.2-63.2,23c-9.9,12.2-7.9,24.7-7.9,24.9l0,0.1l0.8,25.8l-1.8-2.1 c-0.1-0.1-8.2-9.2-22.2-14.2c-12.9-4.6-33.6-6.7-58.9,10c-20.3,13.3-28.3,34.6-23.8,63.2c3.4,21.5,12.9,39.3,13,39.5l0.5,1l-1,0.4 c-0.3,0.1-34.4,15.2-38,60.1c-3.6,44.6,64.6,57.5,65.3,57.6l1,0.2l-0.2,1c-0.1,0.5-9,45.6,30,66.5c39.2,21,94.3-9.3,94.9-9.7 l1.4-0.8l0.1,1.6c0,0.4,2.7,44.1,44.7,58.5c41.8,14.4,87.5-58.3,88-59L1450.3,631z"/></g></g><g id="XMLID_36_" fill="#fff"><path id="XMLID_71_" d="M186.4,781.9L171.6,737h8.1l10.9,34.4l11-34.4h7.4l-14.9,44.9V807h-7.7V781.9z" fill="#fff"/><path id="XMLID_73_" d="M212.5,753.9c0-10.7,5.3-17.6,16-17.6c10.8,0,16.1,6.9,16.1,17.6v36.2c0,10.6-5.3,17.6-16.1,17.6 c-10.7,0-16-7-16-17.6V753.9z M220.2,790.5c0,6.4,2.7,10.1,8.3,10.1c5.7,0,8.3-3.7,8.3-10.1v-37c0-6.3-2.6-10.1-8.3-10.1 c-5.6,0-8.3,3.8-8.3,10.1V790.5z" fill="#fff"/><path id="XMLID_76_" d="M259.4,790.5c0,6.3,2.5,10.1,8.2,10.1c5.6,0,8.1-3.8,8.1-10.1V737h7.3v53.1c0,10.6-4.9,17.7-15.7,17.7 c-10.7,0-15.6-7.1-15.6-17.7V737h7.7V790.5z" fill="#fff"/><path id="XMLID_78_" d="M306.3,737c11,0,15.6,5.6,15.6,16v5.7c0,7.7-2.7,12.5-8.7,14.4c6.4,1.9,8.8,7.1,8.8,14.6v10.9 c0,3.1,0.1,6,1.4,8.4h-7.9c-0.9-2-1.3-3.8-1.3-8.5v-11c0-7.9-3.7-10.4-10.2-10.4h-5.5V807h-7.8v-70H306.3z M304.3,770 c6.2,0,9.9-2,9.9-9.6v-6.7c0-6.3-2.3-9.6-8.1-9.6h-7.6V770H304.3z" fill="#fff"/><path id="XMLID_81_" d="M360.9,737c11,0,15.7,6.5,15.7,17.1v8.4c0,11.1-5.2,16.9-16.3,16.9h-6.9V807h-7.8v-70H360.9z M360.3,772.4 c5.8,0,8.6-2.7,8.6-9.4v-9.3c0-6.4-2.3-9.6-8-9.6h-7.5v28.3H360.3z" fill="#fff"/><path id="XMLID_84_" d="M413.9,753.9v6.3h-7.4v-6.7c0-6.3-2.5-10.1-8.2-10.1c-5.6,0-8.2,3.8-8.2,10.1v37c0,6.3,2.6,10.1,8.2,10.1 c5.7,0,8.2-3.8,8.2-10.1v-9.1h7.4v8.7c0,10.6-5,17.6-15.8,17.6c-10.7,0-15.7-7-15.7-17.6v-36.2c0-10.6,5-17.6,15.7-17.6 C408.9,736.3,413.9,743.3,413.9,753.9z" fill="#fff"/></g><g id="XMLID_37_" fill="#fff"><path id="XMLID_62_" d="M708.1,737v70h-7.8v-70H708.1z" fill="#fff"/><path id="XMLID_64_" d="M746.4,753.8v1.9H739v-2.3c0-6.3-2.4-10-8-10c-5.6,0-8,3.7-8,9.9c0,15.7,23.5,17.2,23.5,36.9 c0,10.6-5.1,17.5-15.8,17.5s-15.7-6.9-15.7-17.5v-4h7.3v4.4c0,6.3,2.6,10,8.2,10c5.6,0,8.2-3.7,8.2-10c0-15.6-23.4-17.1-23.4-36.8 c0-10.8,5-17.5,15.5-17.5C741.4,736.3,746.4,743.2,746.4,753.8z" fill="#fff"/><path id="XMLID_66_" d="M768.5,737c11,0,15.7,6.5,15.7,17.1v8.4c0,11.1-5.2,16.9-16.3,16.9H761V807h-7.8v-70H768.5z M767.9,772.4 c5.8,0,8.6-2.7,8.6-9.4v-9.3c0-6.4-2.3-9.6-8-9.6H761v28.3H767.9z" fill="#fff"/><path id="XMLID_69_" d="M820.9,753.8v1.9h-7.4v-2.3c0-6.3-2.4-10-8-10c-5.6,0-8,3.7-8,9.9c0,15.7,23.5,17.2,23.5,36.9 c0,10.6-5.1,17.5-15.8,17.5s-15.7-6.9-15.7-17.5v-4h7.3v4.4c0,6.3,2.6,10,8.2,10c5.6,0,8.2-3.7,8.2-10c0-15.6-23.4-17.1-23.4-36.8 c0-10.8,5-17.5,15.5-17.5C815.9,736.3,820.9,743.2,820.9,753.8z" fill="#fff"/></g><g id="XMLID_38_" fill="#fff"><path id="XMLID_2_" d="M1265.8,807v-62.9h-12.9V737h33.6v7.1h-12.9V807H1265.8z" fill="#fff"/><path id="XMLID_4_" d="M1299.7,775.5V807h-7.8v-70h7.8v31.5h17.2V737h7.8v70h-7.8v-31.5H1299.7z" fill="#fff"/><path id="XMLID_7_" d="M1357.6,768v7h-17.1v24.9h21v7.1h-28.8v-70h28.8v7.1h-21V768H1357.6z" fill="#fff"/><path id="XMLID_9_" d="M1392,737v70h-7.8v-70H1392z" fill="#fff"/><path id="XMLID_13_" d="M1406.9,807h-7v-70h9.9l16.2,50.6V737h6.9v70h-8.1l-17.9-56.6V807z" fill="#fff"/><path id="XMLID_15_" d="M1451,807v-62.9h-12.9V737h33.5v7.1h-12.9V807H1451z" fill="#fff"/><path id="XMLID_17_" d="M1501.8,768v7h-17.1v24.9h21v7.1h-28.8v-70h28.8v7.1h-21V768H1501.8z" fill="#fff"/><path id="XMLID_20_" d="M1528.5,737c11,0,15.6,5.6,15.6,16v5.7c0,7.7-2.7,12.5-8.7,14.4c6.4,1.9,8.8,7.1,8.8,14.6v10.9 c0,3.1,0.1,6,1.4,8.4h-7.9c-0.9-2-1.3-3.8-1.3-8.5v-11c0-7.9-3.7-10.4-10.2-10.4h-5.5V807h-7.8v-70H1528.5z M1526.5,770 c6.2,0,9.9-2,9.9-9.6v-6.7c0-6.3-2.3-9.6-8.1-9.6h-7.6V770H1526.5z" fill="#fff"/><path id="XMLID_40_" d="M1559.2,807h-7v-70h9.9l16.2,50.6V737h6.9v70h-8.1l-17.9-56.6V807z" fill="#fff"/><path id="XMLID_58_" d="M1618.1,768v7H1601v24.9h21v7.1h-28.8v-70h28.8v7.1h-21V768H1618.1z" fill="#fff"/><path id="XMLID_60_" d="M1639.3,807v-62.9h-12.9V737h33.5v7.1H1647V807H1639.3z" fill="#fff"/></g></svg>