<svg id="Layer_1" data-name="Layer 1" xmlns="http://www.w3.org/2000/svg" viewBox="0 0 902.7 656.5"><defs><style>.cls-1,.cls-2{fill:#fff}.cls-1{stroke:#000;stroke-miterlimit:10}.cls-3{isolation:isolate}</style></defs><title>logo-mnn</title><g id="_Group_" data-name="&lt;Group&gt;"><path id="_Path_3" data-name="&lt;Path&gt;" class="cls-2" d="M559.1,605.8,460,435.2V628H367V283h42.7c51.5,0,60.7,9.3,65.8,19.1L571,481.5V283h86V253H367V656H657V628H620.8C570.6,628,562.9,612.7,559.1,605.8Z" transform="translate(-50.3 -253)"/><rect id="_Path_4" data-name="&lt;Path&gt;" class="cls-2" x="606.7" y="30" width="6" height="345"/></g><g id="_Group_2" data-name="&lt;Group&gt;" class="cls-3"><path class="cls-2" d="M367.3,627.7H295.6V450L241.1,568.1H218.9c-42.4,0-50.5-20.7-54.5-28.1L122,449.9V627.6H50.3V283.2H94.7C123,283.2,127,296,127,296l83.8,197.8,79.7-198.3c1-1.5,6.1-12.3,32.3-12.3h44.4V627.7Z" transform="translate(-50.3 -253)"/></g><g id="_Group_3" data-name="&lt;Group&gt;"><path id="_Path_5" data-name="&lt;Path&gt;" class="cls-2" d="M953,625.6H910.5c-50.2,0-57.9-15.2-61.8-22L749.6,434.5V625.6H656.9V283.4h42.5c51.5,0,60.5,9.3,65.7,19.1l95.3,177.9v-197H953Z" transform="translate(-50.3 -253)"/></g><g id="_Group_4" data-name="&lt;Group&gt;" class="cls-3"><path class="cls-2" d="M171.6,881.2,166.5,908H152.8l25.5-133.2h21.5L225.3,908H210.5l-5.1-26.8Zm1.9-12.8h29.7l-15-76.9Z" transform="translate(-50.3 -253)"/><path class="cls-2" d="M251,876.6c0,12,4.8,19.2,15.6,19.2s15.4-7.2,15.4-19.2V774.8h13.9v101c0,20.2-9.3,33.7-29.9,33.7-20.4,0-29.7-13.5-29.7-33.7v-101H251Z" transform="translate(-50.3 -253)"/><path class="cls-2" d="M369.4,807v11.4H355.3V806.2c0-12-4.8-19.2-15.6-19.2s-15.6,7.2-15.6,19.2v70.4c0,12,4.9,19.2,15.6,19.2s15.6-7.2,15.6-19.2V850H341.6V836.7h27.8v39.2c0,20.2-9.5,33.5-30.1,33.5-20.4,0-29.9-13.3-29.9-33.5V807c0-20.2,9.5-33.5,29.9-33.5S369.4,786.8,369.4,807Z" transform="translate(-50.3 -253)"/><path class="cls-2" d="M397.5,876.6c0,12,4.8,19.2,15.6,19.2s15.4-7.2,15.4-19.2V774.8h13.9v101c0,20.2-9.3,33.7-29.9,33.7-20.4,0-29.7-13.5-29.7-33.7v-101h14.7Z" transform="translate(-50.3 -253)"/><path class="cls-2" d="M514.7,806.8v3.6h-14V806c0-12-4.6-19-15.2-19s-15.2,7-15.2,18.8c0,29.9,44.7,32.7,44.7,70.2,0,20.2-9.7,33.3-30.1,33.3S455,896.2,455,876v-7.6h13.9v8.4c0,12,4.9,19,15.6,19s15.6-7,15.6-19c0-29.7-44.5-32.5-44.5-70,0-20.6,9.5-33.3,29.5-33.3S514.7,786.6,514.7,806.8Z" transform="translate(-50.3 -253)"/><path class="cls-2" d="M547.1,908V788.3H522.5V774.8h63.7v13.5H561.7V908Z" transform="translate(-50.3 -253)"/><path class="cls-2" d="M685.6,806.8v2.5H671.7v-3.4c0-12-4.9-19-15.8-19-11.2,0-16.2,7.2-16.2,21.5v29.9c3.6-9.1,10.8-14.3,21.5-14.3,17.1,0,24.7,12.4,24.7,31.6v20.2c0,20.4-10.1,33.7-30.4,33.7-20.6,0-30.6-13.3-30.6-33.7V807.9c0-21.1,9.5-34.3,30.6-34.3C676.1,773.5,685.6,786.4,685.6,806.8Zm-45.8,49.8v20c0,12,4.9,19.2,15.8,19.2,10.7,0,15.8-7.2,15.8-19.2v-20c0-12-5.1-19.2-15.8-19.2C644.7,837.4,639.8,844.6,639.8,856.6Z" transform="translate(-50.3 -253)"/><path class="cls-2" d="M719.1,908V788.3H694.6V774.8h63.7v13.5H733.8V908Z" transform="translate(-50.3 -253)"/><path class="cls-2" d="M783.2,848.1V908H768.4V774.8h14.8v59.9H816V774.8h14.8V908H816V848.1Z" transform="translate(-50.3 -253)"/></g></svg>